<svg width="1200" height="760" viewBox="0 0 1200 760" fill="none" xmlns="http://www.w3.org/2000/svg">
  <rect width="1200" height="760" fill="#0f1114"/>
  <g opacity="0.34">
    <path d="M0 95H1200M0 190H1200M0 285H1200M0 380H1200M0 475H1200M0 570H1200M0 665H1200" stroke="#2b343c" stroke-width="1.5"/>
    <path d="M95 0V760M190 0V760M285 0V760M380 0V760M475 0V760M570 0V760M665 0V760M760 0V760M855 0V760M950 0V760M1045 0V760M1140 0V760" stroke="#2b343c" stroke-width="1.5"/>
  </g>
  <rect x="58" y="58" width="386" height="520" rx="18" fill="#f4efe5"/>
  <rect x="94" y="98" width="188" height="20" rx="4" fill="#121212"/>
  <rect x="94" y="162" width="292" height="16" rx="3" fill="#121212"/>
  <rect x="94" y="196" width="314" height="16" rx="3" fill="#121212"/>
  <rect x="94" y="230" width="260" height="16" rx="3" fill="#121212"/>
  <rect x="92" y="150" width="320" height="40" rx="4" fill="#ffd84d" opacity="0.86"/>
  <rect x="92" y="184" width="332" height="40" rx="4" fill="#ffd84d" opacity="0.86"/>
  <rect x="94" y="326" width="318" height="16" rx="3" fill="#121212"/>
  <rect x="94" y="360" width="278" height="16" rx="3" fill="#121212"/>
  <rect x="92" y="314" width="340" height="40" rx="4" fill="#ffd84d" opacity="0.86"/>
  <text x="494" y="104" fill="#4f8cff" font-family="JetBrains Mono, monospace" font-size="28" font-weight="500" letter-spacing="6">AI READING LAYER</text>
  <text x="494" y="218" fill="#ffffff" font-family="Syne, Arial Black, sans-serif" font-size="110" font-weight="800">AI reads</text>
  <text x="494" y="340" fill="#ffffff" font-family="Syne, Arial Black, sans-serif" font-size="110" font-weight="800">the paper</text>
  <text x="494" y="462" fill="#ffffff" font-family="Syne, Arial Black, sans-serif" font-size="110" font-weight="800">first</text>
  <rect x="494" y="520" width="522" height="64" rx="12" fill="rgba(79,140,255,0.09)" stroke="rgba(79,140,255,0.3)" stroke-width="2"/>
  <text x="522" y="561" fill="#c6cdd6" font-family="JetBrains Mono, monospace" font-size="26">human reader -> AI assistant</text>
  <text x="58" y="674" fill="#8892a0" font-family="JetBrains Mono, monospace" font-size="28">Google DeepMind · From AGI to ASI</text>
</svg>
